HIERARCHY
ROOT Hips
{
 OFFSET 0.000000 0.000000 0.000000
 CHANNELS 6 Xposition Yposition Zposition Yrotation Xrotation Zrotation
 JOINT Chest
 {
  OFFSET 0.000000 10.388337 0.005184
  CHANNELS 3 Yrotation Xrotation Zrotation
  JOINT Chest2
  {
   OFFSET 0.000000 10.458247 -0.010579
   CHANNELS 3 Yrotation Xrotation Zrotation
   JOINT Chest3
   {
    OFFSET 0.000000 10.415828 0.000000
    CHANNELS 3 Yrotation Xrotation Zrotation
    JOINT Chest4
    {
     OFFSET 0.000000 10.405206 0.000000
     CHANNELS 3 Yrotation Xrotation Zrotation
     JOINT Neck
     {
      OFFSET 0.000000 15.720090 0.000000
      CHANNELS 3 Yrotation Xrotation Zrotation
      JOINT Head
      {
       OFFSET 0.000000 9.732643 -0.022378
       CHANNELS 3 Yrotation Xrotation Zrotation
       End Site
       {
        OFFSET 0.000000 18.603619 -0.011814
       }
      }
     }
     JOINT RightCollar
     {
      OFFSET -3.167735 10.388953 0.000000
      CHANNELS 3 Yrotation Xrotation Zrotation
      JOINT RightShoulder
      {
       OFFSET -14.584825 0.000000 0.000000
       CHANNELS 3 Yrotation Xrotation Zrotation
       JOINT RightElbow
       {
        OFFSET 0.000000 -31.921689 0.000000
        CHANNELS 3 Yrotation Xrotation Zrotation
        JOINT RightWrist
        {
         OFFSET 0.000000 -25.835217 0.000000
         CHANNELS 3 Yrotation Xrotation Zrotation
         End Site
         {
          OFFSET 0.000000 -19.128920 0.000000
         }
        }
       }
      }
     }
     JOINT LeftCollar
     {
      OFFSET 3.167735 10.388953 0.000000
      CHANNELS 3 Yrotation Xrotation Zrotation
      JOINT LeftShoulder
      {
       OFFSET 14.584825 0.000000 0.000000
       CHANNELS 3 Yrotation Xrotation Zrotation
       JOINT LeftElbow
       {
        OFFSET 0.000000 -31.921689 0.000000
        CHANNELS 3 Yrotation Xrotation Zrotation
        JOINT LeftWrist
        {
         OFFSET 0.000000 -25.835217 0.000000
         CHANNELS 3 Yrotation Xrotation Zrotation
         End Site
         {
          OFFSET 0.000000 -19.128920 0.000000
         }
        }
       }
      }
     }
    }
   }
  }
 }
 JOINT RightHip
 {
  OFFSET -8.403278 -0.025659 -0.002592
  CHANNELS 3 Yrotation Xrotation Zrotation
  JOINT RightKnee
  {
   OFFSET 0.000000 -44.040977 0.002477
   CHANNELS 3 Yrotation Xrotation Zrotation
   JOINT RightAnkle
   {
    OFFSET 0.000000 -42.951162 0.004189
    CHANNELS 3 Yrotation Xrotation Zrotation
    JOINT RightToe
    {
     OFFSET 0.000000 -5.494238 12.197485
     CHANNELS 3 Yrotation Xrotation Zrotation
     End Site
     {
      OFFSET 0.000000 -1.538716 6.371628
     }
    }
   }
  }
 }
 JOINT LeftHip
 {
  OFFSET 8.403278 -0.025659 -0.002592
  CHANNELS 3 Yrotation Xrotation Zrotation
  JOINT LeftKnee
  {
   OFFSET 0.000000 -44.040977 0.002477
   CHANNELS 3 Yrotation Xrotation Zrotation
   JOINT LeftAnkle
   {
    OFFSET 0.000000 -42.951162 0.004189
    CHANNELS 3 Yrotation Xrotation Zrotation
    JOINT LeftToe
    {
     OFFSET 0.000000 -5.494238 12.197485
     CHANNELS 3 Yrotation Xrotation Zrotation
     End Site
     {
      OFFSET 0.000000 -1.538716 6.371628
     }
    }
   }
  }
 }
}
MOTION
Frames: 5
Frame Time: 0.008333
0.000000 92.319940 0.000000 0.000000 -5.767889 0.000000 0.000000 11.653876 0.000000 0.000000 -5.885988 0.000000 0.000000 -0.000000 0.000000 0.000000 -0.000000 0.000000 0.000000 12.528808 0.000000 0.000000 0.711711 0.000000 0.000000 -0.000000 0.000000 0.000000 0.000000 -90.000000 0.000000 -2.309063 0.000000 0.000000 2.309063 0.000000 0.000000 -0.000000 0.000000 0.000000 -0.000000 90.000000 0.000000 -2.309063 0.000000 0.000000 2.309063 0.000000 0.000000 8.520374 0.000000 0.000000 1.905768 0.000000 -0.000000 -4.658254 0.000000 0.000000 -0.000000 0.000000 0.000000 8.520374 0.000000 0.000000 1.905768 0.000000 -0.000000 -4.658254 0.000000 0.000000 -0.000000 0.000000
66.920038 93.552358 -20.679229 119.467403 -1.816758 0.737601 0.649894 0.558115 -0.599264 0.005794 0.003430 -0.005883 0.010494 0.006214 -0.010656 0.789569 0.473987 -0.803019 -3.539446 18.279170 3.303463 -7.562639 -1.532950 7.205009 1.353808 3.065170 2.423210 0.586071 2.688851 -7.762177 8.582293 -16.696696 7.663291 2.866188 0.194106 4.077814 1.922087 2.545177 0.946959 -1.905440 -1.146601 5.150440 -2.940035 -8.256030 -9.875161 2.018495 -0.743731 0.958364 -0.378248 7.778403 0.491965 -9.077330 -2.690800 2.140163 1.743160 -2.699564 -3.161485 -0.145494 0.133808 -0.005349 -4.906696 4.455644 -0.989219 9.818351 3.826249 0.290213 -12.363003 -6.743511 0.176612 0.013458 -0.408788 0.025597
66.948267 93.546584 -20.631668 119.709958 -1.854484 0.738518 0.692592 0.631725 -0.571233 0.006406 0.004114 -0.006113 0.011600 0.007450 -0.011069 0.834915 0.543603 -0.797447 -3.566423 18.285859 3.323911 -7.618075 -1.516171 7.250529 1.350765 3.099775 2.410597 0.488267 2.747011 -7.819653 8.422629 -16.655859 7.631732 2.847597 0.176172 4.042517 1.854686 2.546359 0.901407 -1.857090 -1.193818 5.272677 -2.710837 -8.612725 -10.294612 2.060731 -0.811774 0.926639 -0.480016 7.834652 0.519727 -9.129963 -2.676270 2.168118 1.661912 -2.726296 -3.216209 -0.142875 0.147762 -0.011084 -4.942166 4.201597 -0.939786 9.717644 4.354699 0.376393 -12.438014 -6.942758 0.148578 0.018090 -0.424489 0.024537
66.980800 93.538719 -20.574656 119.957494 -1.884878 0.738383 0.733281 0.702562 -0.542365 0.007031 0.004802 -0.006315 0.012729 0.008694 -0.011432 0.879008 0.608565 -0.789536 -3.600718 18.293649 3.346113 -7.687383 -1.496476 7.301488 1.339937 3.137129 2.395570 0.378657 2.806579 -7.884863 8.258588 -16.593140 7.612547 2.825271 0.156907 4.001108 1.792426 2.560339 0.869500 -1.808623 -1.239156 5.382733 -2.457100 -8.951660 -10.713804 2.104138 -0.879317 0.887536 -0.582797 7.887763 0.553761 -9.183729 -2.668143 2.198267 1.583745 -2.754876 -3.272742 -0.143970 0.165105 -0.019560 -4.973861 3.926665 -0.876270 9.612353 4.908609 0.456359 -12.518978 -7.149430 0.120687 0.021670 -0.441853 0.023175
67.017482 93.528447 -20.510339 120.207106 -1.909049 0.735191 0.773161 0.769081 -0.511412 0.007661 0.005484 -0.006467 0.013864 0.009925 -0.011704 0.921955 0.668934 -0.777703 -3.640691 18.302284 3.368738 -7.767151 -1.474599 7.354937 1.319436 3.177311 2.379518 0.261600 2.869041 -7.956745 8.101763 -16.511418 7.592567 2.801281 0.139532 3.958044 1.738232 2.581197 0.847941 -1.757659 -1.277469 5.480692 -2.187970 -9.269136 -11.125404 2.151976 -0.948407 0.840926 -0.677779 7.940167 0.595555 -9.239437 -2.669096 2.231966 1.502432 -2.783821 -3.333313 -0.147670 0.185225 -0.028552 -4.994139 3.632612 -0.798425 9.503033 5.488456 0.534198 -12.619871 -7.366760 0.092429 0.023417 -0.459506 0.021697
